<?xml version="1.0" standalone="no"?><!DOCTYPE svg PUBLIC "-//W3C//DTD SVG 1.1//EN" "http://www.w3.org/Graphics/SVG/1.1/DTD/svg11.dtd"><svg t="1688518434353" class="icon" viewBox="0 0 1024 1024" version="1.1" xmlns="http://www.w3.org/2000/svg" p-id="2335" xmlns:xlink="http://www.w3.org/1999/xlink" width="200" height="200"><path d="M109.53216 730.97216h118.272v147.968h-118.272zM346.07616 494.42816h118.272v384.512h-118.272zM553.43616 612.70016h118.272v266.24h-118.272zM819.16416 346.46016h118.272v502.784h-118.272z" fill="#1296db" p-id="2336"></path><path d="M169.92256 631.40864c34.304 0 62.464-28.16 61.952-62.464 0-8.192-1.536-15.872-4.608-23.552l147.968-147.968c7.68 3.072 15.36 4.608 23.552 4.608 14.848 0 28.672-5.632 39.936-15.36l128 64c0 1.536-1.024 2.56-1.024 4.096 0 34.304 27.648 62.464 61.952 62.464 34.304 0 62.464-27.648 62.464-61.952 0-8.192-1.536-16.384-4.608-24.064l148.992-186.368c31.744 12.8 68.096-2.56 80.896-34.304 9.216-23.04 4.096-49.664-13.824-67.072-24.576-23.552-63.488-23.552-88.064 0-17.92 17.92-23.04 44.544-13.312 68.096l-148.992 186.368c-20.992-7.68-45.056-4.096-62.464 10.752l-128.512-64c0-1.536 1.024-2.56 1.024-4.096 0-16.384-6.656-32.256-17.92-44.032-24.576-23.552-63.488-23.552-88.064 0-17.408 17.92-23.04 44.544-13.312 67.584l-148.48 148.48c-23.04-9.216-49.152-3.584-67.584 13.312-24.576 24.064-24.576 63.488-0.512 88.064 12.288 11.264 28.16 17.92 44.544 17.408z m677.888-454.144c5.632-5.12 14.848-5.12 19.968 1.024 5.12 5.632 5.12 13.824 0 19.456-5.632 5.12-14.336 5.12-19.968 0-5.632-6.144-5.632-14.848 0-20.48z m-229.376 267.264c5.632-5.632 14.336-5.632 19.968 0s5.632 14.336 0 19.968c-5.632 5.12-14.336 5.12-19.968 0-5.632-5.632-5.632-14.336 0-19.968z m-229.376-114.688c5.632-5.632 14.336-5.632 19.968 0s5.632 14.336 0 19.968c-5.632 5.12-14.336 5.12-19.968 0-4.608-5.12-4.608-14.336 0-19.968z m-228.864 229.376c5.632-5.632 14.336-5.632 19.968 0s5.632 14.848 0 19.968-14.336 5.12-19.968 0c-4.608-5.12-3.584-13.824 0-19.968z" fill="#1296db" p-id="2337"></path><path d="M953.28256 851.05664h-14.336v-510.976c0-13.312-10.752-24.064-24.064-24.064h-114.688c-13.312 0-24.064 10.752-24.064 24.064v510.976h-66.56v-243.712c0-13.312-10.752-24.064-24.064-24.064h-114.688c-13.312 0-24.064 10.752-24.064 24.064v243.712h-66.048v-357.888c0-13.312-10.752-24.064-24.064-24.064h-114.688c-13.312 0-24.064 10.752-24.064 24.064v357.888h-66.56v-129.024c0-13.312-10.752-24.064-24.064-24.064h-114.688c-13.312 0-24.064 10.752-24.064 24.064v129.024h-14.336c-13.312 0-24.064 10.752-24.064 24.064s10.752 24.064 24.064 24.064h878.592c13.312 0 24.064-10.752 24.064-24.064 0.512-13.312-10.24-24.064-23.552-24.064z m-816.64 0v-104.96h66.56v104.96h-66.56z m229.376 0v-334.336h66.56v334.336h-66.56z m229.376 0v-219.648h66.56v219.648h-66.56z m229.376 0v-486.912h66.56v486.912h-66.56z" fill="#1296db" p-id="2338"></path></svg>